<svg width="25" height="22" viewBox="0 0 25 22" fill="none" xmlns="http://www.w3.org/2000/svg">
<path d="M0.78031 13.8906C0.987261 13.8906 1.18574 13.9728 1.33207 14.1192C1.47841 14.2655 1.56062 14.464 1.56062 14.6709V18.5725C1.56062 18.9864 1.72504 19.3833 2.01771 19.676C2.31039 19.9687 2.70734 20.1331 3.12124 20.1331H21.8487C22.2626 20.1331 22.6595 19.9687 22.9522 19.676C23.2449 19.3833 23.4093 18.9864 23.4093 18.5725V14.6709C23.4093 14.464 23.4915 14.2655 23.6378 14.1192C23.7842 13.9728 23.9827 13.8906 24.1896 13.8906C24.3966 13.8906 24.595 13.9728 24.7414 14.1192C24.8877 14.2655 24.9699 14.464 24.9699 14.6709V18.5725C24.9699 19.4003 24.6411 20.1942 24.0557 20.7795C23.4704 21.3649 22.6765 21.6937 21.8487 21.6937H3.12124C2.29344 21.6937 1.49954 21.3649 0.91419 20.7795C0.328844 20.1942 0 19.4003 0 18.5725V14.6709C0 14.464 0.082211 14.2655 0.228547 14.1192C0.374884 13.9728 0.573359 13.8906 0.78031 13.8906Z" fill="#3776FF"/>
<path d="M11.9322 0.229245C12.0047 0.156578 12.0908 0.0989241 12.1856 0.0595864C12.2804 0.0202487 12.382 0 12.4846 0C12.5873 0 12.6889 0.0202487 12.7837 0.0595864C12.8785 0.0989241 12.9646 0.156578 13.0371 0.229245L17.719 4.9111C17.8655 5.05763 17.9478 5.25635 17.9478 5.46356C17.9478 5.67078 17.8655 5.8695 17.719 6.01602C17.5724 6.16255 17.3737 6.24486 17.1665 6.24486C16.9593 6.24486 16.7606 6.16255 16.614 6.01602L13.2649 2.66537V16.3879C13.2649 16.5949 13.1827 16.7933 13.0364 16.9397C12.8901 17.086 12.6916 17.1682 12.4846 17.1682C12.2777 17.1682 12.0792 17.086 11.9329 16.9397C11.7865 16.7933 11.7043 16.5949 11.7043 16.3879V2.66537L8.35524 6.01602C8.28269 6.08857 8.19656 6.14612 8.10177 6.18539C8.00698 6.22465 7.90538 6.24486 7.80278 6.24486C7.70018 6.24486 7.59858 6.22465 7.50379 6.18539C7.409 6.14612 7.32287 6.08857 7.25032 6.01602C7.17777 5.94347 7.12022 5.85734 7.08096 5.76255C7.04169 5.66776 7.02148 5.56617 7.02148 5.46356C7.02148 5.36096 7.04169 5.25937 7.08096 5.16458C7.12022 5.06978 7.17777 4.98365 7.25032 4.9111L11.9322 0.229245Z" fill="#3776FF"/>
</svg>
